<svg xmlns="http://www.w3.org/2000/svg" data-name="Layer 1" viewBox="0 0 2300 3000">
    <path fill="#f99b28"
        d="M2057.773 1363.44a401.245 401.245 0 0 0-13.951-61.174c-22.973-75.346-113.591-183.128-135.992-221.02-23.898-40.314-41.854-110.026-41.854-110.026.66-7.923 50.73-669.113-199.38-692.13-198.62-18.353-235.31 304.046-258.064 419.44l-.044.045c-101.444-17.824-309.834 34.988-383.199 119.664-69.933-89.781-340.243-356.36-460.656-190-157.16 217.059 131.678 616.021 190.08 699.068 0 0 23.062 43.923 17.34 109.146-3.08 35.209-10.474 76.71-15.756 121.117-7.834 65.356-11.266 137.005 9.902 204.077 16.548 46.122 41.414 87.536 72.706 124.065-127.454-158.966-42.382-266.087 7.481-309.261 108.662-94.094 264.723-69.933 347.682-150.472 83.005-80.495-14.654-338.88 87.23-368.455l1.1-.352.22-.044c82.387-24.998 166.667 267.275 273.833 289.632 107.165 22.357 200.423-109.19 384.343-46.342 76.578 26.186 123.097 102.807 115.747 185.547 6.118-41.59 6.821-82.74 1.232-122.525ZM778.919 1164.293c-57.874-104.744-208.622-374.668-118.93-445.833 87.582-69.405 205.718 103.476 261.215 184.72-48.587 61.218-123.23 173.092-142.285 261.113Zm949.172-330.958c-58.225-51.36-117.375-93.919-195.934-112.315 12.455-102.016 20.33-327.93 127.099-328.237 84.895-.22 72.928 316.839 68.835 440.552Z"
        class="colorf99b28 svgShape"></path>
    <path fill="#ec1c24"
        d="M1971.337 1899.443v.044c-22.622 33.712-53.56 67.38-95.458 99.111-26.803 50.656-93.743 173.27-155.666 255.481-18.484 24.602-41.81 52.636-60.866 70.46-100.96 94.623-145.454 160.639-259.794 30.808-18.748-21.257-49.467-50.876-74.025-73.453.132-.044.22-.132.352-.176q-7.394-6.668-14.876-13.071c-.264-.264-.572-.485-.835-.749-92.995-80.231-186.429-134.98-193.955-139.337a10.92 10.92 0 0 0-.484-.264c-182.247-86.92-236.028-209.05-237.172-211.69 150.56 96.868 494.061 152.32 655.14 99.86 205.352-66.852 388.347-222.957 480.725-402.783 0 0 52.593 143.21-43.086 285.759Z"
        class="colorec1c24 svgShape"></path>
    <path fill="#102770"
        d="M1511.358 2436.059c-1.16 0-2.319-.025-3.49-.074-34.647-1.455-69.952-24.648-114.478-75.21-15.577-17.656-43.025-44.887-73.42-72.832l-10.262-9.433.105-.04q-2.076-1.801-4.158-3.588l-.459-.425a8.837 8.837 0 0 1-.54-.464c-93.62-80.747-188.559-136.006-192.558-138.32-183.874-87.705-238.828-210.61-241.077-215.801l-10.752-24.805 22.735 14.63c152.49 98.115 491.714 149.911 648.15 98.96 200.827-65.382 383.205-218.165 475.961-398.726l8.56-16.665 6.46 17.588c2.195 5.976 52.436 147.421-42.583 291.074v.058l-1.394 2.08c-24.49 36.495-56.739 70.122-95.867 99.976-26.775 50.527-93.66 172.861-155.515 254.98-10.41 13.858-37.288 48.58-61.819 71.519-8.92 8.36-17.407 16.504-25.537 24.312-48.919 46.948-84.622 81.206-128.062 81.206Zm-170.114-150.801c26.696 24.936 50.307 48.594 64.472 64.653 40.767 46.294 73.443 68.423 102.84 69.658 38.164 1.68 72.2-31.191 119.487-76.572 8.174-7.847 16.706-16.035 25.686-24.453 16.367-15.303 38.765-41.245 59.917-69.4 61.816-82.065 128.967-205.239 154.97-254.39l.85-1.606 1.453-1.098c37.746-28.584 68.857-60.713 92.505-95.528l1.091-1.66c72.192-107.553 57.566-216.328 47.534-259.253-97.295 176.314-277.773 324.2-475.808 388.672-42.895 13.97-99.233 20.4-161.677 20.4-158.172.01-355.686-41.244-474.331-105.751 25.38 40.205 88.552 119.721 219.035 181.948.137.068.491.24 1.106.6 4.01 2.32 100.342 58.394 195.162 140.2l.441.41c.154.118.34.28.533.455q7.456 6.409 14.87 13.071l10.471 9.439Z"
        class="color102770 svgShape"></path>
    <path fill="#fff"
        d="M1596.819 2228.294c-4.367.006-8.765.345-13.093-.063a28.348 28.348 0 0 0-17.387 3.632c-7.958 4.577-16.519 6.642-25.678 4.929-15.044-2.815-22.507-16.115-16.896-30.373a43.174 43.174 0 0 1 5.885-10.05 73.25 73.25 0 0 0 10.886-19.811c3.43-9.63 10.27-15.653 20.292-17.57 10.11-1.933 18.82 1.162 25.418 9.045a44.802 44.802 0 0 0 16.621 12.826 29.748 29.748 0 0 1 13.628 11.844c5.768 9.38 4.165 20.204-4.037 27.549a32.754 32.754 0 0 1-15.64 7.509zm-50.544-113.124c1.396 5.719 2.223 11.492.618 17.235a29.432 29.432 0 0 1-3.795 8.641c-5.833 8.516-16.534 9.537-24.532 2.33-7.203-6.49-10.61-14.717-9.419-24.46a40.41 40.41 0 0 1 10.894-23.146 23.444 23.444 0 0 1 5.443-4.248c4.02-2.292 7.913-1.585 11.155 1.734 3.33 3.41 5.14 7.698 6.673 12.09 1.126 3.227 1.985 6.546 2.963 9.824zm9.512-1.89c-.282-5.781-.766-11.562-.752-17.342a21.212 21.212 0 0 1 1.675-7.434c1.462-3.744 4.5-5.48 8.527-5.354 4.88.154 9.077 2.233 13.025 4.868 6.894 4.601 12.684 10.304 15.517 18.25 2.932 8.223 2.41 16.43-2.232 23.98-5.83 9.479-17.088 10.734-25.606 3.05a28.672 28.672 0 0 1-8.412-14.125c-.53-1.942-.833-3.945-1.239-5.92l-.503.027zm77.996 25.965c2.14 10.483-.196 19.22-7.772 26.151-8.351 7.64-19.658 4.997-24.131-5.43a24.229 24.229 0 0 1-1.875-12.905 52.651 52.651 0 0 1 7.196-21.157 21.068 21.068 0 0 1 4.133-4.825c3.231-2.757 6.896-2.89 10.486-.61 5.07 3.22 7.971 8.134 10.191 13.514.766 1.857 1.29 3.813 1.772 5.262zm-111.112 32.203c-.12 2.905.099 5.872-.424 8.701-1.527 8.263-8.949 13.011-17.179 11.27-10.064-2.131-18.035-10.783-19.745-21.414a35.646 35.646 0 0 1 .93-16.843 22.77 22.77 0 0 1 2.214-4.8c2.494-4.096 6.285-5.457 10.845-3.962a14.68 14.68 0 0 1 3.64 1.685 49.758 49.758 0 0 1 17.976 20.971 39.503 39.503 0 0 1 1.406 4.35zm418.123-871.03c-183.92-62.847-277.178 68.7-384.343 46.342-107.166-22.357-191.446-314.63-273.833-289.632l-.22.044-1.1.352c-101.884 29.575-4.225 287.96-87.23 368.455-82.958 80.54-239.02 56.378-347.682 150.472-49.863 43.174-134.935 150.295-7.481 309.261a250.474 250.474 0 0 0 39.609 30.852l.044.044c150.56 96.867 494.061 152.319 655.14 99.859 205.352-66.852 388.347-222.957 480.725-402.783a633.932 633.932 0 0 0 28.43-63.463c1.497-5.546 2.993-11.09 4.358-16.592.792-3.301 1.584-6.602 2.288-9.903a1.035 1.035 0 0 0 .089-.352c2.816-12.499 5.104-24.954 6.953-37.409 7.35-82.74-39.17-159.361-115.747-185.547zm-448.906 537.807c-54.882-6.162-68.437-69.933-92.335-122.921-11.31-25.042-24.293-39.258-34.371-47.18 49.775-20.376 72.264-60.734 72.264-111.742 0-5.766-.307-11.618-.88-17.648-3.3 1.056-6.69 1.936-10.166 2.685-94.182 20.684-161.606-40.402-170.408-98.408-8.803-58.005 34.856-81.067 129.038-101.752 94.182-20.685 149.283-24.734 158.085 33.272 8.187 54.309-30.278 137.62-101.62 162.618 23.106 49.864 70.99 79.307 118.389 76.095 9.506 23.677 26.274 71.604 25.526 112.974-1.233 68.217-41.238 117.86-93.522 112.007z"
        class="colorfff svgShape"></path>
    <path fill="#f99b28"
        d="M1221.971 2579.8h-54.748l-7.614 55.013c59.414 17.604 42.514 86.568 42.514 86.568H888.945l-5.942-141.58H612.78c-22.974 34.063-50.965 49.159-50.965 49.159 104.877 45.463 38.113 92.421 38.113 92.421H280.25a41.207 41.207 0 0 1-41.208-41.207V2238.72c-6.028-191.71 54.045-332.323 135.729-434.383 46.827-58.578 100.784-104.437 153.42-139.997 99.816-67.337 194.966-97.571 228.106-106.77-7.834 65.356-11.266 137.005 9.902 204.077 16.548 46.122 41.414 87.536 72.706 124.065a250.474 250.474 0 0 0 39.609 30.852l.044.044c1.144 2.64 54.925 124.768 237.172 211.689 0 0 .176.088.484.264 7.526 4.357 100.96 59.106 193.955 139.337.263.264.571.485.835.749 4.446 4.004 9.33 8.45 14.524 13.247-106.99 55.057-103.557 297.906-103.557 297.906Z"
        class="colorf99b28 svgShape"></path>
    <path fill="#fff"
        d="M1766.38 2446.757c-74.862 55.409-158.57 88.505-231.187 107.87-74.641 19.848-137.62 25.173-167.37 25.173H1221.97s-3.432-242.849 103.557-297.906c24.558 22.577 55.277 52.196 74.025 73.453 114.34 129.83 158.834 63.815 259.794-30.807 19.056-17.825 42.382-45.86 60.866-70.46 25.394 38.068 42.339 113.986 46.167 192.677Z"
        class="colorfff svgShape"></path>
    <path fill="#f99b28"
        d="M1826.85 2394.736a525.397 525.397 0 0 1-60.47 52.02c-3.828-78.69-20.773-154.608-46.167-192.677 61.923-82.211 128.863-204.825 155.666-255.48 41.897-31.732 72.836-65.4 95.458-99.112 21.52 228.15-45.595 396.05-144.487 495.25Z"
        class="colorf99b28 svgShape"></path>
    <path fill="#f99b28"
        d="M1846.92 2714.032h-282.635l-29.092-159.406c72.617-19.364 156.325-52.46 231.187-107.87a525.397 525.397 0 0 0 60.47-52.02l-23.941 222.473s92.306 33.382 44.01 96.823Z"
        class="colorf99b28 svgShape"></path>
    <path fill="#102770"
        d="M1850.99 2722.245h-293.555l-31.684-173.603 7.326-1.954c87.63-23.369 164.48-59.209 228.416-106.533a519.305 519.305 0 0 0 59.536-51.216l16.492-16.567-25.784 239.585c13.784 6.089 46.79 23.384 55.334 52.383 5.186 17.598.606 35.991-13.615 54.668Zm-279.854-16.426h271.6c9.03-13.076 11.918-25.44 8.586-36.797-8.267-28.164-50.786-43.93-51.216-44.086l-6.045-2.203.679-6.401 21.528-200.04a543.863 543.863 0 0 1-45.01 37.076c-63.806 47.227-140.017 83.277-226.628 107.212Z"
        class="color102770 svgShape"></path>
    <path fill="#fff" d="M888.945 2721.381H693.846L679.147 2579.8h203.856l5.942 141.581z" class="colorfff svgShape">
    </path>
    <path fill="#f99b28"
        d="M528.191 1664.34c-52.636 35.56-106.593 81.419-153.42 139.997-15.888-54.574-63.771-252.84 52.065-332.895 58.05-40.181 30.322 151.968 101.355 192.898Z"
        class="colorf99b28 svgShape"></path>
    <path fill="#f02f84"
        d="M1586.638 1726.52c-1.233 68.217-41.238 117.86-93.522 112.007-54.882-6.161-68.437-69.933-92.335-122.92-11.31-25.043-24.293-39.259-34.372-47.18 49.776-20.377 72.265-60.734 72.265-111.743 0-5.765-.308-11.618-.88-17.648a91.787 91.787 0 0 0 4.93-1.584c23.105 49.863 70.988 79.307 118.388 76.094 9.505 23.678 26.274 71.604 25.526 112.975Z"
        class="colorf02f84 svgShape"></path>
    <path fill="#fff"
        d="m233.705 2459.072 87.404 173.108s192.467-37.773 279.056 18.706c0 0 56.656 44.404-5.575 72.997H284.037a43.635 43.635 0 0 1-43.615-42.319zm655.139 95.312s30.807 89.679 90.22 96.207c59.415 6.528 208.744-61.688 224.301 63.741 5.89 16.745-1.34 7.335-1.34 7.335h-313.08zm654.077 42.587s29.551 38.88 63.292 53.915c0 0 264.466-96.826 251.795 43.458l-11.204 19.988H1568.07z"
        class="colorfff svgShape"></path>
    <path fill="#102770"
        d="M968.223 901.284c-70.875 71.986-167.206 232.374-189.673 336.154-68.236-123.497-261.067-428.001-133.474-546.849 96.41-89.802 257.715 114.906 323.147 210.695zm799.833 0c-82.984-67.398-165.384-138.635-277.347-162.775 17.752-133.873 27.574-401.877 178.383-381.58 122.143 16.438 104.797 382.01 98.964 544.355z"
        class="color102770 svgShape" opacity="0.3"></path>
    <path fill="#ed2e7a"
        d="M1728.632 824.61c-58.226-51.36-117.376-93.918-195.935-112.314 12.456-102.016 12.267-310.195 119.037-310.503 84.895-.22 80.99 299.104 76.898 422.818zm-806.93 79.173c-48.587 61.218-123.23 173.093-142.285 261.114-57.875-104.745-209.12-375.272-119.428-446.437 87.582-69.405 206.216 104.08 261.713 185.323z"
        class="colored2e7a svgShape"></path>
    <path fill="#fff"
        d="M932.06 1985.226s141.627 83.253 269.964 51.736l-292.642-89.878zm1088.95-287.534s-97.922 134.965-202.08 168.706c0 0 178.241-182.97 202.08-227.917zm-1612.29-194.98s18.014 212.584 109.643 164.942c0 0-74.154-143.07-68.955-191.481 0 0-14.48 1.742-40.687 26.54z"
        class="colorfff svgShape" opacity="0.6"></path>
    <path fill="#fff" d="M747.79 1609.256S273.783 1765.98 241.7 2143.334c0 0 16.535-455.911 493.944-564.47Z"
        class="colorfff svgShape" opacity="0.6"></path>
    <g class="color000 svgShape" opacity="0.6">
        <path fill="#fff"
            d="M1660.493 284.62c-198.619-18.353-216.106 307.618-238.86 423.013l-.043.044c-101.444-17.824-309.834 34.989-383.2 119.665C968.46 737.56 680.8 469.849 560.389 636.209c-30.28 41.81-40.93 95.459-37.982 155.489 2.421-45.067 14.084-85.468 37.982-118.476 120.412-166.36 408.07 101.351 478.003 191.132 73.365-84.676 281.755-137.488 383.199-119.664l.044-.044c22.753-115.395 40.24-441.366 238.859-423.013 152.936 14.083 207.697 220.831 209.237 456.2 1.496-239.198-48.116-478.381-209.237-493.213zm83.65 422.485c-.309 54.793-1.894 103.513-2.95 135.332-57.302-50.524-150.692-107.104-227.402-125.94-1.276 13.599-2.508 25.79-3.74 36.088 78.558 18.396 172.916 75.505 231.142 126.865 1.276-38.861 3.345-102.852 2.95-172.345zM941.391 900.18c-63.551 72.074-131.988 192.986-149.371 273.217-46.035-83.312-141.46-280.286-155.895-416.41-16.724 120.677 99.737 361.749 150.393 453.422 19.057-88.02 119.752-229.382 168.34-290.6-3.873-5.634-8.362-12.235-13.467-19.63zm948.117-155.665c-.837 131.24-10.167 232.991-10.431 235.808 0 0 .792 3.124 2.289 8.406 3.3-44.803 8.846-137.4 8.142-244.214z"
            class="colorfff svgShape"></path>
    </g>
    <path fill="#102770"
        d="M1025.191 836.161a17.604 17.604 0 0 1-13.298-29.13c75.664-87.35 288.716-144.698 399.072-125.592a17.605 17.605 0 0 1 1.731 34.493l-3.67.918-3.683-.65c-99.488-17.475-299.063 35.635-366.839 113.887a17.56 17.56 0 0 1-13.313 6.074Z"
        class="color102770 svgShape"></path>
    <path fill="#102770"
        d="M1374.791 2054.506c-199.219.005-456.12-65.991-548.298-155.884l-1.082-1.152c-33.596-39.243-59.128-82.842-75.886-129.585l-.217-.65c-28.416-90.117-14.439-187.783-3.21-266.26 3.376-23.598 6.566-45.893 8.315-65.78 4.797-54.566-12.051-92.437-14.971-98.516l-3.58-5.083c-32.65-46.304-119.382-169.312-177.343-305.957-74.365-175.303-77.105-312.48-8.147-407.725 28.562-39.463 66.711-59.893 113.384-60.718 147.627-2.651 333.586 196.958 375.33 250.542a17.605 17.605 0 0 1-27.774 21.64c-58.523-75.126-227.127-238.96-346.934-236.977-35.498.625-63.46 15.723-85.486 46.158-66.701 92.129-88.62 283.623 185.745 672.749l5.542 8.125c1.04 1.977 25.425 49.272 19.307 118.847-1.834 20.845-5.088 43.594-8.535 67.686-11.267 78.74-24.038 167.973 1.833 250.356 15.222 42.34 38.384 81.91 68.848 117.637 112.927 109.106 504.243 182.129 676.516 126.07 221.101-71.959 421.057-254.752 497.844-455.01 1.394-5.098 2.747-10.181 3.984-15.269 13.997-57.334 17.442-112.363 10.245-163.564a380.776 380.776 0 0 0-13.37-58.511c-15.556-51.09-66.88-121.968-100.842-168.867-14.895-20.572-26.662-36.822-33.454-48.291-24.876-41.997-42.972-111.665-43.728-114.61l-.74-2.876.244-2.959c.134-1.64 12.988-168.72-5.566-337.173-16.238-147.436-60.264-325.454-177.784-336.279-164.087-15.21-208.442 234.053-232.346 367.925-2.456 13.76-4.775 26.758-6.938 37.715l-2.16 10.962-10.84 2.71a17.621 17.621 0 0 1-21.363-21.402c2.046-10.43 4.18-22.387 6.64-36.172 12.068-67.578 30.3-169.692 68.545-252.49 47.894-103.696 115.784-152.222 201.695-144.306 113.337 10.439 183.84 134.077 209.548 367.485 17.505 158.93 7.573 316.821 5.886 340.8 3.523 12.989 19.458 69.395 39.2 102.73 5.969 10.073 17.883 26.528 31.677 45.581 37.451 51.714 88.738 122.544 106.008 179.263a415.19 415.19 0 0 1 14.556 63.882c7.82 55.62 4.15 115.107-10.906 176.787-1.382 5.679-2.9 11.367-4.463 17.07l-.53 1.621c-81.401 213.257-285.568 400.386-520.144 476.724-44.365 14.438-101.452 21-164.255 21Z"
        class="color102770 svgShape"></path>
    <path fill="#102770"
        d="m1744.327 871.518-27.996-24.693c-51.525-45.44-109.995-90.014-188.28-108.345l-15.37-3.598 1.907-15.67c1.504-12.338 2.971-26.825 4.524-42.157 12.168-120.098 30.554-301.582 140.098-301.875h.137c14.111 0 27.29 5.898 38.12 17.065 53.435 55.108 54.797 241.997 48.31 435.747zm-193.035-163.404c64.358 18.042 115.403 51.636 160.271 88.38 3.396-113.028 6.45-332.481-39.372-379.737-5.554-5.728-10.117-6.45-12.886-6.372-77.81.21-94.932 169.228-105.163 270.215-.972 9.585-1.91 18.842-2.85 27.514zM786.087 1214.18l-23.967-43.394c-102.102-184.82-194.51-383.252-105.732-453.647 21.462-17.022 45.568-23.633 71.626-19.693 82.092 12.442 163.76 131.91 207.636 196.09l7.325 10.717-8.07 10.166c-53.212 67.031-121.515 173.75-138.884 253.911zm-72.314-482.613c-12.705 0-24.392 4.341-35.51 13.16-68.74 54.506 37.634 267.065 95.561 374.15 31.8-88.994 98.68-181.147 125.496-216.08-40.115-58.383-113.653-161-176.582-170.536a59.47 59.47 0 0 0-8.965-.694zm585.967 968.096c-26.912 0-49.934-7.578-68.816-22.71-41.59-33.33-48.767-92.95-46.45-122.92a17.604 17.604 0 1 1 35.102 2.715c-1.929 24.98 5.361 70.288 33.364 92.73 21.331 17.094 52.569 19.521 92.867 7.192 77.797-23.79 80.41-90.62 68.901-142.49l34.272-8.057c8.514 34.297 29.861 62.832 58.567 78.286 23.838 12.832 50.05 15.279 73.794 6.885 63.877-22.573 65.713-86.797 56.004-136.694a17.605 17.605 0 0 1 34.56-6.729c17.21 88.457-11.523 152.832-78.833 176.616-33.22 11.748-69.521 8.516-102.217-9.077a146.529 146.529 0 0 1-38.269-29.858c-8.77 51.313-41.865 88.086-96.484 104.79q-30.494 9.324-56.362 9.321z"
        class="color102770 svgShape"></path>
    <path fill="#102770"
        d="M1500.265 1856.61a93.285 93.285 0 0 1-10.442-.59c-55.154-6.192-75.857-57.94-94.124-103.6-3.943-9.853-8.017-20.038-12.314-29.545-12.517-27.7-19.798-36.733-22.13-39.175a17.607 17.607 0 0 1 3.858-33.78c15.894-2.426 30.513 14.537 50.357 58.453 4.614 10.215 8.835 20.767 12.92 30.972 19.377 48.437 33.447 78.105 65.358 81.684 15.564 1.739 30.218-2.998 42.427-13.716 19.41-17.04 30.904-46.61 31.533-81.137.95-52.173-25.578-103.477-25.844-103.99a17.604 17.604 0 0 1 31.162-16.386c1.267 2.407 31.003 59.614 29.883 121.02-.808 44.41-16.665 83.389-43.506 106.953-17.141 15.044-37.412 22.837-59.138 22.837zm-129.993-171.86zm.022-.005zm.022-.005-.007.005zm.041-.005c-.012 0-.024.005-.034.005.01 0 .022-.005.034-.005zm172.63-309.884c8.792 58.005-35.78 149.114-116.687 166.879-94.19 20.682-161.626-40.433-170.42-98.438-8.792-58.005 34.848-81.066 129.038-101.748 94.19-20.683 149.276-24.698 158.069 33.307z"
        class="color102770 svgShape"></path>
    <ellipse cx="1398.285" cy="1396.908" fill="#fff" class="colorfff svgShape" rx="63.476" ry="22.138"
        transform="rotate(-12.907 1398.272 1396.899)"></ellipse>
    <path fill="#102770"
        d="M1598.52 1172.858c12.519 52.813-5.636 104.338-40.532 115.073-34.854 10.722-73.308-23.389-85.826-76.201-12.518-52.813 5.638-104.338 40.492-115.06 34.896-10.735 73.349 23.375 85.867 76.188Z"
        class="color102770 svgShape"></path>
    <ellipse cx="1549.568" cy="1177.804" fill="#fff" class="colorfff svgShape" rx="17.177" ry="42.817"
        transform="rotate(-12.611 1549.567 1177.804)"></ellipse>
    <path fill="#102770"
        d="M1166.707 1292.066c12.429 52.833-5.813 104.328-40.727 115.004-34.912 10.676-73.268-23.512-85.697-76.345-12.43-52.834 5.772-104.316 40.685-114.992 34.913-10.676 73.31 23.499 85.739 76.333Z"
        class="color102770 svgShape"></path>
    <ellipse cx="1117.73" cy="1296.934" fill="#fff" class="colorfff svgShape" rx="17.177" ry="42.817"
        transform="rotate(-12.514 1117.73 1296.934)"></ellipse>
    <path fill="#102770"
        d="M1872.956 2020.096a172.313 172.313 0 0 1-30.933 22.709 215.199 215.199 0 0 1-35.46 16.33 272.782 272.782 0 0 1-75.163 16.097 2.255 2.255 0 0 1-1.286-4.197l.044-.024c11.02-6.431 22.09-12.111 32.791-18.306q16.13-9.058 31.503-18.562c10.258-6.335 20.016-13.169 29.901-19.701 9.93-6.543 19.516-13.35 30.7-19.418a15.523 15.523 0 0 1 18.061 24.928Z"
        class="color102770 svgShape"></path>
    <path fill="#102770"
        d="M1868.368 2022.03a17.608 17.608 0 0 1-10.391-31.83c214.978-156.837 140.598-368.013 139.822-370.128a17.605 17.605 0 0 1 33.052-12.138c.895 2.446 21.865 60.732 13.569 140.664-7.64 73.623-42.586 180.234-165.691 270.048a17.549 17.549 0 0 1-10.361 3.384zm-736.723 94.66c21.893 7.999 43.398 16.617 65.236 24.675 21.83 8.026 43.732 16.165 66.043 23.427q33.444 10.94 67.695 20.379c22.807 6.42 45.874 12.236 69.099 18.343a2.539 2.539 0 0 1-.579 4.997 656.1 656.1 0 0 1-72.284-2.71 722.122 722.122 0 0 1-71.908-10.287c-23.815-4.708-47.572-10.36-70.71-18.113-23.127-7.72-45.894-16.87-67.323-28.733a17.653 17.653 0 0 1 14.604-32.027z"
        class="color102770 svgShape"></path>
    <path fill="#102770"
        d="M1111.068 2144.037a17.576 17.576 0 0 1-7.683-1.772c-184.341-89.59-238.919-213.252-241.153-218.472a17.604 17.604 0 0 1 32.354-13.887c.593 1.358 52.641 117.32 224.19 200.689a17.608 17.608 0 0 1-7.708 33.442Z"
        class="color102770 svgShape"></path>
    <path fill="#102770"
        d="M1511.17 2445.746q-1.897 0-3.81-.078c-37.415-1.572-74.776-25.747-121.143-78.384-111.033-126.055-277.696-222.451-279.366-223.408a17.604 17.604 0 0 1 17.522-30.537c7.022 4.028 173.299 100.156 288.265 230.674 38.964 44.233 69.53 65.356 96.198 66.474 34.068 1.573 66.97-30.18 112.571-73.935 8.215-7.881 16.79-16.109 25.813-24.56 97.322-91.178 199.797-309.679 200.82-311.876a17.605 17.605 0 0 1 31.915 14.873c-4.295 9.214-106.363 226.85-208.663 322.696-8.918 8.354-17.392 16.484-25.51 24.277-48.64 46.665-87.329 83.784-134.612 83.784zm-928.425 293.525H304.071a82.812 82.812 0 0 1-82.72-82.72v-417.26c-9.23-296.704 130.044-469.009 248.528-561.318 128.04-99.751 256.56-128.97 261.968-130.161a17.604 17.604 0 0 1 7.61 34.375c-1.258.278-127.212 29.096-249.024 124.409-162.29 126.977-240.979 305.927-233.882 531.87l.01.552v417.534a47.566 47.566 0 0 0 47.51 47.514h278.674c9.263 0 17.388-5.625 19.76-13.681 5.721-19.414-31.528-37.93-47.807-44.986l-33.308-14.438 31.963-17.212c4.09-2.251 101.25-57.52 61.824-196.826a17.604 17.604 0 0 1 33.877-9.59c33.691 119.038-20.02 188.584-54.197 219.009 43.723 26.152 47.32 53.98 41.423 73.994-6.755 22.925-28.77 38.935-53.535 38.935z"
        class="color102770 svgShape"></path>
    <path fill="#102770"
        d="M1367.72 2597.704h-200.598a17.603 17.603 0 1 1 0-35.205h200.599c2.834 0 285.54-2.241 461.88-195.981 101.047-111.021 143.38-261.748 125.825-448.003a17.604 17.604 0 0 1 35.053-3.301c18.523 196.528-26.843 356.343-134.84 475-186.695 205.117-484.928 207.49-487.918 207.49zm-484.819 0H612.68a17.603 17.603 0 1 1 0-35.205h270.222a17.603 17.603 0 1 1 0 35.205z"
        class="color102770 svgShape"></path>
    <path fill="#102770"
        d="M1167.076 2739.271H871.96l-11.128-266.26a17.603 17.603 0 0 1 35.176-1.474l9.721 232.53h261.348a18.058 18.058 0 0 0 14.373-7.076 16.664 16.664 0 0 0 3.083-14.57c-4.08-15.698-13.901-25.65-30.027-30.43l-14.511-4.302 21.88-158.022a17.605 17.605 0 0 1 34.877 4.824l-17.905 129.317c20.208 9.975 33.83 26.938 39.763 49.755a51.755 51.755 0 0 1-9.311 44.966 53.02 53.02 0 0 1-42.222 20.742zm653.257-7.338h-211.636a70.947 70.947 0 0 1-69.824-58.233l-21.108-115.654a17.605 17.605 0 1 1 34.638-6.318l21.106 115.654a35.756 35.756 0 0 0 35.188 29.346h211.636c9.897 0 18.328-6.949 19.614-16.158 4.97-35.659-35.842-44.848-40.51-45.781a17.682 17.682 0 0 1-14.145-19.165l23.947-222.49a17.604 17.604 0 1 1 35.005 3.77l-22.368 207.822c26.824 10.102 59.346 34.775 52.942 80.708-3.699 26.508-27.122 46.499-54.485 46.499z"
        class="color102770 svgShape"></path>
    <path fill="#102770"
        d="M888.844 2739.271H733.336a61.37 61.37 0 0 1-61.196-55.18l-10.589-102.173a17.604 17.604 0 0 1 35.02-3.633l10.588 102.173a26.256 26.256 0 0 0 26.177 23.608h155.508a17.602 17.602 0 1 1 0 35.205zm-514.734-924.95a17.608 17.608 0 0 1-16.587-11.715c-3.547-9.98-85.198-245.57 59.204-345.36 13.384-9.254 25.693-11.358 36.575-6.25 20.644 9.682 23.18 38.105 26.69 77.45 5.465 61.27 12.69 108.345 50.973 110.957a17.604 17.604 0 1 1-2.392 35.127c-71.33-4.863-78.745-87.964-83.65-142.954-1.358-15.21-3.308-37.09-6.577-46.416-.481.293-1.014.645-1.602 1.05-122.456 84.624-46.824 302.417-46.047 304.61a17.614 17.614 0 0 1-16.587 23.5zm1084.025-256.44c7.865 11.79 13.702 24.087 19.125 36.802a356.543 356.543 0 0 1 13.588 39.118 386.279 386.279 0 0 1 9.554 40.529c2.252 13.755 3.878 27.702 3.454 41.686a2.247 2.247 0 0 1-4.32.799l-.015-.039c-10.511-25.215-22.314-48.967-34.493-72.745-6.029-11.886-12.468-23.573-18.205-35.554-5.767-11.916-11.528-24.073-16.008-36.36l-.121-.33a15.492 15.492 0 0 1 27.441-13.906z"
        class="color102770 svgShape"></path>
    <path fill="#102770"
        d="M2021.01 1790.293c-16.283 69.536-58.621 149.415-155.884 218.82 0 0-103.733 222.648-204.736 317.27-101.005 94.623-145.455 160.639-259.838 30.808-112.535-127.806-278.542-224.013-283.691-226.961a.544.544 0 0 1-.132-.089c-89.606-42.778-148.183-94.05-184.668-135.42 202.36 124.286 641.1 190.433 641.1 190.433-98.76 78.427-191.754 62.01-191.754 62.01s-.968 79.66 121.425 84.72c122.35 5.018 236.556-228.81 236.556-228.81-77.459 8.23-227.797 16.017-227.797 16.017 224.453-38.509 425.712-240.205 509.42-328.798zM360.72 1631.318s119.993 10.65 112.358-30.485c0 0 17.472 66.051 68.084 59.45l-159.89 130.01s-33.756-95.517-20.552-158.975z"
        class="color102770 svgShape" opacity="0.3"></path>
    <path fill="#102770"
        d="M2040.692 1528.025c-1.32 5.502-2.816 11.047-4.313 16.592a633.714 633.714 0 0 1-28.43 63.464v.044c-92.378 179.782-275.418 335.887-480.726 402.74-177.538 57.785-576.536-15.405-694.837-130.756-31.247-36.529-56.157-77.942-72.66-124.065-21.39-67.864-17.649-140.437-9.64-206.453 19.498 141.405 171.032 487.371 743.733 363.174 105.243-22.824 485.259-109.762 555.412-567.383a236.633 236.633 0 0 1 2.024 12.456c7.746 54.968 3.52 112.534-10.563 170.187Z"
        class="color102770 svgShape" opacity="0.3"></path>
    <path fill="#102770"
        d="M1587.247 1613.026c-55.278 19.585-118.168-10.87-145.806-70.416 12.26-15.459 23.476-23.909 35.095-33.063 24.382 29.267 129.723 146.566 179.939-42.723 11.223 72.485-11.222 125.738-69.228 146.202zm-149.9-51.184c0 50.084-21.697 89.958-69.58 110.642a159.567 159.567 0 0 1-16.768 6.162c-76.006 23.237-155.533-33.008-148.932-118.08 0 0 23.556 85.337 123.461 72.95 29.001-3.596 55.089-36.38 73.9-95.206l3.345-1.717 32.594-1.993c.484 3.257.836 6.47 1.1 9.638a171.43 171.43 0 0 1 .88 17.604z"
        class="color102770 svgShape" opacity="0.3"></path>
    <path fill="#102770"
        d="M1621.894 1747.551c-2.006 81.83-46.713 122.061-103.481 134.676-79.219 17.605-132.591-42.037-142.154-80.01-28.827-114.472-150.217-158.476-146.3-156.408 46.344 24.426 110.212 44.137 141.546 26.973 9.11 8.45 19.805 21.829 29.268 42.822 23.897 52.988 37.453 116.76 92.334 122.921 52.284 5.853 92.29-43.79 93.522-112.007.748-41.37-16.02-89.297-25.526-112.974a102.785 102.785 0 0 1-20.817-.705c74.95-2.64 126.31-85.952 126.31-85.952-39.845 107.723-41.312 82.369-44.702 220.664Z"
        class="color102770 svgShape" opacity="0.3"></path>
    <path fill="#102770"
        d="m1821.468 2397.325-23.942 222.429s85.117 16.108 44.01 96.823H1617.52a70.246 70.246 0 0 1-69.1-57.62l-18.607-101.83c-74.643 19.893-137.578 25.218-167.328 25.218h-200.6l-7.613 55.013c59.414 17.604 42.513 86.525 42.513 86.525H738.632a55.63 55.63 0 0 1-55.335-49.901l-9.488-91.637h-66.412c-22.973 34.064-50.964 49.116-50.964 49.116 104.921 45.507 38.157 92.422 38.157 92.422H288.11a54.406 54.406 0 0 1-54.405-54.407V2394.73c65.663 82.299 204.208 195.01 394.509 24.69 1.892 7.173 3.477 14.127 4.709 20.86v.176a119.989 119.989 0 0 1-4.489 43.923h758.651s10.3-1.805 28.255-5.942c-45.639-43.746-119.312-111.214-325.149-248.834-239.153-159.934-303.1-357.013-318.24-421.664a402.051 402.051 0 0 0 58.49 89.825 250.44 250.44 0 0 0 39.61 30.851s52.989 123.846 237.216 211.734c0 0 .176.088.484.265 10.035 5.853 172.52 101.003 283.295 226.785 114.384 129.83 158.834 63.815 259.837-30.807 101.005-94.623 204.737-317.271 204.737-317.271 45.816-32.7 79.483-67.732 103.91-102.896q3.498 37.232 3.96 71.78l-81.023 60.515s-44.01 116.98-146.29 272.644q-17.165 26.142-34.638 49.82c105.274-57.698 209.182-141.714 261.862-261.202-19.76 125.958-73.673 218.952-141.933 287.344zm182.484-1159.887c-142.815-106.725-185.46-251.343-185.46-251.343 28.606-114.471 6.03-413.874-7.042-556.292 82.74 199.763 55.893 553.607 55.409 559.373 0 0 17.956 69.712 41.854 110.026 14.876 25.217 59.942 81.287 95.239 138.236z"
        class="color102770 svgShape" opacity="0.3"></path>
</svg>